# xmcd CD database file
#
# Track frame offsets:
#	150
#	25541
#	47604
#	71460
#	96966
#	112680
#	132868
#	153702
#	182280
#	205886
#	222240
#	244252
#
# Disc length: 3484 seconds
#
# Revision: 0
# Processed by: cddbd v1.5.2PL0 Copyright (c) Steve Scherf et al.
# Submitted via: CDex 1.70beta2
#
DISCID=9a0d9a0c
DTITLE=齊旦布 - 雪域蒼狼
DYEAR=1900
DGENRE=New Age
TTITLE0=天上西藏
TTITLE1=父親的草原母親的河
TTITLE2=阿媽拉
TTITLE3=故鄉的牧羊人
TTITLE4=月光落地的聲音
TTITLE5=青藏人
TTITLE6=冰雪天堂
TTITLE7=夢回西藏
TTITLE8=高原情
TTITLE9=美麗的姑娘卓瑪拉
TTITLE10=天路
TTITLE11=獻給阿媽的歌
EXTD=
EXTT0=
EXTT1=
EXTT2=
EXTT3=
EXTT4=
EXTT5=
EXTT6=
EXTT7=
EXTT8=
EXTT9=
EXTT10=
EXTT11=
PLAYORDER=
